<?xml version="1.0" standalone="no"?>
<!DOCTYPE svg PUBLIC "-//W3C//DTD SVG 20010904//EN"
 "http://www.w3.org/TR/2001/REC-SVG-20010904/DTD/svg10.dtd">
<svg version="1.0" xmlns="http://www.w3.org/2000/svg"
 width="512.000000pt" height="512.000000pt" viewBox="0 0 512.000000 512.000000"
 preserveAspectRatio="xMidYMid meet">
<metadata>
Created by potrace 1.11, written by Peter Selinger 2001-2013
</metadata>
<g transform="translate(0.000000,512.000000) scale(0.100000,-0.100000)"
fill="#000000" stroke="none">
<path d="M3008 4559 c-51 -12 -150 -62 -226 -115 -35 -25 -68 -42 -73 -39 -5
4 -9 24 -9 46 0 21 -4 39 -8 39 -37 0 -178 -47 -245 -82 -165 -86 -313 -213
-475 -408 -53 -63 -129 -149 -170 -192 l-74 -76 26 -17 c35 -23 34 -68 -4
-156 -65 -147 -74 -200 -74 -455 l-1 -231 -42 161 c-23 88 -47 171 -52 182
-14 32 -105 72 -193 85 -154 23 -281 -13 -344 -97 -43 -57 -65 -197 -71 -449
-7 -276 20 -380 137 -521 43 -53 161 -157 207 -182 11 -7 20 -47 33 -153 10
-79 16 -146 15 -147 -3 -4 -29 -4 -106 0 -52 2 -77 -12 -119 -68 -83 -111 -95
-143 -98 -284 -3 -82 1 -145 10 -185 13 -55 11 -93 -24 -465 -20 -223 -37
-426 -38 -452 0 -42 -3 -48 -34 -67 -30 -19 -36 -30 -50 -92 -9 -39 -16 -84
-16 -100 0 -26 3 -28 39 -27 22 0 44 -2 49 -6 6 -3 21 -2 34 3 l23 10 -23 0
c-13 1 -37 8 -53 17 -28 14 -30 18 -24 52 9 50 16 55 52 37 64 -32 172 -47
283 -41 186 11 273 39 287 94 l7 27 6 -30 c3 -16 3 -48 0 -70 -4 -34 -10 -43
-43 -58 -21 -11 -66 -22 -100 -25 -58 -5 -59 -6 -27 -13 19 -4 57 -3 84 2 26
5 53 6 59 2 5 -3 7 -1 4 4 -4 6 0 13 8 17 9 3 15 0 15 -9 0 -9 9 -15 21 -15
20 0 21 4 17 108 -3 100 -5 112 -31 151 l-29 43 88 152 c120 209 234 390 291
465 26 35 63 88 81 117 45 74 128 129 262 174 61 20 232 60 238 55 1 -1 -7
-23 -19 -49 -39 -89 -38 -206 2 -206 11 0 17 -4 14 -10 -11 -17 15 -40 46 -40
29 0 59 -22 59 -45 0 -25 23 -65 37 -65 7 0 37 -23 66 -51 28 -29 83 -70 121
-93 38 -23 78 -53 88 -66 10 -14 32 -88 49 -165 28 -124 32 -159 33 -307 1
-135 4 -168 15 -168 20 0 10 338 -13 435 -29 122 -29 123 0 75 75 -130 136
-293 178 -482 4 -19 13 -28 26 -28 11 0 20 3 20 8 0 4 -14 61 -31 127 -17 66
-34 130 -36 142 -4 17 8 37 47 79 100 110 133 191 149 364 5 64 20 138 37 190
15 47 29 91 30 98 2 6 17 12 33 12 18 0 35 8 43 19 10 14 18 17 28 10 32 -19
49 -10 61 33 11 43 8 138 -5 170 -6 13 16 7 96 -26 261 -109 437 -228 504
-342 48 -82 83 -330 91 -656 l6 -226 24 -5 c16 -3 27 1 30 10 9 23 -6 359 -22
518 -21 199 -41 302 -71 362 -71 147 -324 314 -644 428 -58 20 -116 41 -129
47 -23 9 -20 12 56 61 93 60 136 97 214 187 135 155 249 366 330 611 27 82 49
157 50 166 0 10 7 -3 15 -29 8 -27 18 -48 22 -48 12 0 83 139 113 220 l28 75
1 -74 c0 -42 4 -71 9 -65 10 11 76 318 93 429 18 125 15 401 -6 528 -30 187
-93 362 -172 482 -21 33 -43 66 -47 73 -6 10 -2 11 17 6 14 -3 26 -3 26 1 0
14 -98 139 -137 176 -85 80 -190 134 -323 164 -217 49 -322 97 -338 157 l-9
33 -69 -1 c-57 0 -82 -7 -146 -36 -72 -34 -78 -35 -92 -19 -9 10 -16 35 -16
59 0 47 -7 49 -82 31z m-176 -1249 c196 -229 410 -427 540 -499 26 -14 48 -28
48 -31 0 -3 -70 -36 -156 -75 -86 -38 -157 -72 -159 -75 -2 -3 0 -12 4 -18 5
-9 55 9 182 67 l175 80 59 -24 c33 -13 72 -27 87 -30 27 -7 27 -6 20 32 -13
78 -9 95 24 109 l31 13 47 -64 c74 -101 154 -160 243 -179 l32 -7 -4 83 -5 83
44 -120 c25 -66 45 -132 45 -146 1 -38 -62 -262 -105 -369 -81 -209 -189 -388
-310 -519 -143 -155 -328 -249 -579 -296 -105 -20 -164 -12 -325 41 -240 80
-500 264 -570 404 -74 149 -146 366 -176 533 -13 73 -15 128 -10 272 6 183 20
313 35 328 15 15 40 -5 44 -36 4 -30 4 -31 12 -9 5 15 13 22 24 19 9 -3 159
-66 333 -141 175 -75 320 -136 323 -136 3 0 5 8 5 18 0 13 -77 49 -330 157
-182 77 -330 142 -330 144 0 14 199 541 205 541 1 0 31 -36 66 -80 34 -44 66
-77 70 -73 3 5 14 31 23 59 19 59 44 96 53 76 6 -15 87 -72 102 -72 6 0 11 8
11 18 0 9 5 34 11 56 13 46 -5 61 161 -134z m-1362 -65 c25 -8 53 -22 63 -29
11 -9 36 -83 72 -222 79 -301 89 -361 76 -452 -22 -148 -104 -338 -185 -430
l-42 -47 6 -145 c4 -80 5 -148 3 -152 -3 -5 -17 -8 -32 -8 l-28 0 -17 148
c-13 112 -21 150 -34 160 -199 151 -273 237 -317 367 -37 112 -38 399 0 629
19 118 55 164 155 197 39 13 229 3 280 -16z m618 -279 c-2 -27 -6 -33 -17 -27
-11 7 -11 18 0 67 12 51 14 55 17 27 2 -18 2 -48 0 -67z m1562 -52 c12 -22 12
-27 0 -34 -25 -16 -30 -11 -30 25 0 41 11 45 30 9z m-1900 -381 c12 -40 25
-73 29 -73 4 0 13 17 21 38 l13 37 8 -28 c10 -36 90 -177 100 -177 5 0 15 21
23 48 13 43 15 45 15 15 3 -126 89 -421 175 -598 46 -95 63 -120 127 -181 93
-88 188 -156 303 -215 l89 -47 -44 -6 c-149 -23 -231 -38 -279 -52 -154 -43
-279 -108 -333 -175 -72 -87 -243 -348 -360 -548 l-101 -173 -38 243 c-21 134
-41 278 -46 321 l-8 76 28 6 c16 3 73 48 138 108 l112 103 -5 48 c-3 34 -12
56 -31 76 -14 15 -26 35 -26 45 0 9 -11 27 -25 40 l-25 23 41 18 c55 25 89 68
89 112 0 66 -79 121 -211 147 l-26 6 -6 142 -7 142 29 31 c95 100 199 356 202
500 1 45 0 46 29 -52z m-181 -814 c27 -6 68 -24 90 -40 34 -24 41 -35 41 -63
0 -37 -18 -58 -72 -80 -36 -15 -36 -15 -75 22 -22 20 -47 49 -56 64 -10 16
-32 32 -55 39 -34 10 -46 8 -100 -14 l-62 -25 0 22 c0 34 21 53 75 70 60 18
146 20 214 5z m-317 -42 c-28 -78 1 -102 82 -68 76 31 112 28 136 -11 l20 -33
-27 -25 c-16 -14 -42 -35 -58 -47 -21 -16 -25 -22 -13 -23 9 0 38 18 63 40 39
34 49 38 66 29 11 -5 25 -21 31 -35 10 -21 8 -28 -13 -50 -13 -14 -36 -33 -51
-42 -28 -16 -37 -32 -19 -32 5 0 32 18 60 40 44 35 53 39 70 28 46 -28 28 -73
-46 -119 -32 -20 -43 -39 -24 -39 5 0 33 18 61 41 51 40 53 41 70 23 10 -11
20 -31 24 -46 7 -31 2 -37 -121 -152 -70 -65 -87 -76 -117 -76 l-36 0 0 -49
c0 -54 18 -186 80 -579 30 -187 38 -258 30 -272 -26 -48 -310 -78 -445 -46
l-50 11 2 97 c1 53 18 275 38 494 l37 399 -16 110 c-29 189 -5 308 84 420 32
40 51 53 81 54 15 1 15 -3 1 -42z m2148 -320 c0 -2 -5 -29 -11 -61 -8 -44 -27
-82 -84 -169 -40 -62 -90 -143 -110 -182 -36 -69 -37 -72 -32 -157 l4 -88 -32
-20 c-66 -41 -110 -18 -175 92 -24 40 -67 107 -96 150 -29 42 -58 95 -64 117
-10 37 -24 55 -77 98 -18 15 -23 32 -28 110 l-7 93 73 -25 c41 -14 112 -33
159 -41 78 -14 94 -14 180 1 52 8 138 31 190 49 97 35 110 38 110 33z m85 -41
c54 -32 77 -82 73 -156 l-3 -55 -32 3 c-24 2 -34 -2 -43 -17 -6 -12 -20 -21
-31 -21 -26 0 -128 -52 -170 -87 -45 -38 -36 -18 57 124 59 91 79 131 88 176
6 31 13 57 15 57 2 0 23 -11 46 -24z m-834 -13 c0 -5 4 -44 8 -87 8 -78 10
-80 54 -120 27 -25 50 -56 57 -79 7 -21 42 -84 80 -140 61 -93 186 -316 143
-257 -42 58 -85 98 -135 125 -29 15 -83 57 -121 92 -37 34 -71 63 -76 63 -5 0
-12 15 -15 34 -7 38 -29 62 -68 71 -17 4 -28 15 -30 28 -2 14 -11 23 -27 25
-23 4 -23 6 -17 65 8 77 40 143 80 168 31 19 66 25 67 12z m720 -341 c-10 -31
-23 -67 -30 -80 -6 -12 -16 -73 -22 -135 -15 -177 -42 -247 -137 -356 l-38
-44 -23 76 -24 75 25 33 c14 19 38 57 52 86 23 46 26 64 26 157 0 97 2 107 25
135 25 29 139 111 155 111 5 0 0 -26 -9 -58z m-243 -354 c-19 -34 -38 -63 -44
-64 -5 -2 -21 24 -36 56 -24 53 -25 59 -8 50 26 -14 60 -12 90 5 14 8 27 14
28 15 2 0 -11 -28 -30 -62z"/>
<path d="M2195 2430 c-14 -22 11 -30 95 -30 73 0 88 -3 84 -14 -7 -17 29 -56
52 -56 29 0 54 21 54 45 0 24 2 24 97 27 84 3 98 6 101 21 3 16 -13 17 -237
17 -149 0 -242 -4 -246 -10z"/>
<path d="M3242 2423 c2 -14 15 -19 56 -21 48 -3 52 -5 52 -28 0 -33 40 -52 75
-36 22 10 30 28 26 55 0 4 60 7 134 7 128 0 135 1 135 20 0 19 -7 20 -241 20
-224 0 -240 -1 -237 -17z"/>
<path d="M2930 1831 c-46 -15 -89 -41 -150 -92 -49 -41 -59 -53 -49 -65 9 -11
20 -6 62 32 62 56 135 94 180 94 44 0 120 -39 183 -95 43 -37 54 -42 63 -31
10 12 0 24 -49 65 -98 82 -177 112 -240 92z"/>
<path d="M3242 884 c-24 -17 -29 -53 -10 -72 33 -33 99 10 77 49 -16 31 -43
40 -67 23z m46 -37 c4 -20 -25 -34 -40 -19 -15 15 -1 44 19 40 10 -2 19 -11
21 -21z"/>
<path d="M3142 508 c-16 -16 -15 -53 2 -68 21 -16 56 -9 72 15 27 41 -39 88
-74 53z m56 -31 c4 -20 -25 -34 -40 -19 -15 15 -1 44 19 40 10 -2 19 -11 21
-21z"/>
<path d="M971 4108 c-29 -92 -92 -213 -137 -266 -48 -56 -123 -91 -201 -94
-35 -1 -63 -5 -63 -8 0 -3 17 -14 37 -25 66 -36 138 -115 162 -180 20 -52 22
-73 18 -152 -5 -86 -4 -93 13 -93 12 0 22 12 30 36 7 19 34 68 61 108 76 113
139 153 264 165 l70 7 -40 18 c-118 51 -163 157 -172 404 -3 83 -9 152 -12
152 -4 0 -17 -33 -30 -72z m9 -199 c6 -41 17 -96 26 -124 17 -54 73 -145 89
-145 6 0 -16 -11 -47 -24 -76 -31 -129 -75 -176 -146 l-40 -59 -7 54 c-8 71
-56 164 -106 209 -33 31 -37 37 -22 42 98 29 187 109 240 214 15 31 29 56 30
55 2 0 7 -35 13 -76z"/>
<path d="M3765 628 c11 -83 34 -354 41 -485 5 -86 11 -133 18 -133 14 0 4 233
-19 470 -18 181 -19 190 -35 190 -7 0 -9 -15 -5 -42z"/>
<path d="M2250 563 c-4 -92 -23 -161 -63 -226 -62 -102 -177 -323 -171 -330 3
-3 17 -2 31 2 25 7 47 40 112 170 l28 54 -5 -112 -5 -111 25 0 25 0 12 168 c7
92 16 205 22 252 12 109 11 140 -1 140 -5 0 -10 -3 -10 -7z"/>
<path d="M3067 102 c-23 -26 -21 -49 6 -66 25 -16 80 -33 59 -18 -10 7 -10 11
3 22 19 16 19 44 -1 64 -21 21 -47 20 -67 -2z m58 -27 c0 -23 -34 -33 -46 -14
-10 17 9 41 30 37 9 -2 16 -12 16 -23z"/>
</g>
</svg>
